REM DIRINDEX 1\3,1\2\4,1\2\5,1\2\6
REM DIRNAME folder01,folder02,folder03,folder04,folder05,folder06
TITLE ""
FILE "067.mp3" MP3
  TRACK 01 AUDIO
    TITLE "4:cjc137_2738"
    INDEX 01 00:00:00
  TRACK 02 AUDIO
    TITLE "0:"
    INDEX 01 00:01:17
  TRACK 03 AUDIO
    TITLE "6:cjc137_2739"
    INDEX 01 00:01:28
  TRACK 04 AUDIO
    TITLE "0:"
    INDEX 01 00:02:36
  TRACK 05 AUDIO
    TITLE "5:cjc137_2740"
    INDEX 01 00:02:43
  TRACK 06 AUDIO
    TITLE "0:"
    INDEX 01 00:03:63
  TRACK 07 AUDIO
    TITLE "4:cjc137_2741"
    INDEX 01 00:04:70
  TRACK 08 AUDIO
    TITLE "0:"
    INDEX 01 00:06:08
  TRACK 09 AUDIO
    TITLE "6:cjc137_2742"
    INDEX 01 00:06:20
  TRACK 10 AUDIO
    TITLE "0:"
    INDEX 01 00:08:15
  TRACK 11 AUDIO
    TITLE "5:cjc137_2743"
    INDEX 01 00:08:23
  TRACK 12 AUDIO
    TITLE "0:"
    INDEX 01 00:09:38
  TRACK 13 AUDIO
    TITLE "4:cjc137_2744"
    INDEX 01 00:10:49
  TRACK 14 AUDIO
    TITLE "0:"
    INDEX 01 00:11:60
  TRACK 15 AUDIO
    TITLE "6:cjc137_2745"
    INDEX 01 00:11:68
  TRACK 16 AUDIO
    TITLE "0:"
    INDEX 01 00:13:08
  TRACK 17 AUDIO
    TITLE "5:cjc137_2746"
    INDEX 01 00:13:18
  TRACK 18 AUDIO
    TITLE "0:"
    INDEX 01 00:14:29
  TRACK 19 AUDIO
    TITLE "4:cjc137_2747"
    INDEX 01 00:15:38
  TRACK 20 AUDIO
    TITLE "0:"
    INDEX 01 00:16:51
  TRACK 21 AUDIO
    TITLE "6:cjc137_2748"
    INDEX 01 00:16:59
  TRACK 22 AUDIO
    TITLE "0:"
    INDEX 01 00:17:51
  TRACK 23 AUDIO
    TITLE "5:cjc137_2749"
    INDEX 01 00:17:59
  TRACK 24 AUDIO
    TITLE "0:"
    INDEX 01 00:18:72
  TRACK 25 AUDIO
    TITLE "4:cjc137_2750"
    INDEX 01 00:20:06
  TRACK 26 AUDIO
    TITLE "0:"
    INDEX 01 00:21:23
  TRACK 27 AUDIO
    TITLE "6:cjc137_2751"
    INDEX 01 00:21:31
  TRACK 28 AUDIO
    TITLE "0:"
    INDEX 01 00:22:48
  TRACK 29 AUDIO
    TITLE "5:cjc137_2752"
    INDEX 01 00:22:58
  TRACK 30 AUDIO
    TITLE "0:"
    INDEX 01 00:24:00
  TRACK 31 AUDIO
    TITLE "4:cjc137_2753"
    INDEX 01 00:25:09
  TRACK 32 AUDIO
    TITLE "0:"
    INDEX 01 00:26:22
  TRACK 33 AUDIO
    TITLE "6:cjc137_2754"
    INDEX 01 00:26:30
  TRACK 34 AUDIO
    TITLE "0:"
    INDEX 01 00:27:18
  TRACK 35 AUDIO
    TITLE "5:cjc137_2755"
    INDEX 01 00:27:28
  TRACK 36 AUDIO
    TITLE "0:"
    INDEX 01 00:28:39
  TRACK 37 AUDIO
    TITLE "4:cjc137_2756"
    INDEX 01 00:29:46
  TRACK 38 AUDIO
    TITLE "0:"
    INDEX 01 00:30:67
  TRACK 39 AUDIO
    TITLE "6:cjc137_2757"
    INDEX 01 00:30:73
  TRACK 40 AUDIO
    TITLE "0:"
    INDEX 01 00:32:13
  TRACK 41 AUDIO
    TITLE "5:cjc137_2758"
    INDEX 01 00:32:21
  TRACK 42 AUDIO
    TITLE "0:"
    INDEX 01 00:33:40
  TRACK 43 AUDIO
    TITLE "4:cjc137_2759"
    INDEX 01 00:34:47
  TRACK 44 AUDIO
    TITLE "0:"
    INDEX 01 00:35:63
  TRACK 45 AUDIO
    TITLE "6:cjc137_2760"
    INDEX 01 00:35:68
  TRACK 46 AUDIO
    TITLE "0:"
    INDEX 01 00:36:66
  TRACK 47 AUDIO
    TITLE "5:cjc137_2761"
    INDEX 01 00:36:72
  TRACK 48 AUDIO
    TITLE "0:"
    INDEX 01 00:38:12
  TRACK 49 AUDIO
    TITLE "4:cjc137_2762"
    INDEX 01 00:39:15
  TRACK 50 AUDIO
    TITLE "0:"
    INDEX 01 00:40:21
  TRACK 51 AUDIO
    TITLE "6:cjc137_2763"
    INDEX 01 00:40:28
  TRACK 52 AUDIO
    TITLE "0:"
    INDEX 01 00:41:12
  TRACK 53 AUDIO
    TITLE "5:cjc137_2764"
    INDEX 01 00:41:18
  TRACK 54 AUDIO
    TITLE "0:"
    INDEX 01 00:42:23
  TRACK 55 AUDIO
    TITLE "4:cjc137_2765"
    INDEX 01 00:43:31
  TRACK 56 AUDIO
    TITLE "0:"
    INDEX 01 00:44:38
  TRACK 57 AUDIO
    TITLE "6:cjc137_2766"
    INDEX 01 00:44:48
  TRACK 58 AUDIO
    TITLE "0:"
    INDEX 01 00:45:65
  TRACK 59 AUDIO
    TITLE "5:cjc137_2767"
    INDEX 01 00:46:00
  TRACK 60 AUDIO
    TITLE "0:"
    INDEX 01 00:47:09
  TRACK 61 AUDIO
    TITLE "4:cjc137_2768"
    INDEX 01 00:48:18
  TRACK 62 AUDIO
    TITLE "0:"
    INDEX 01 00:49:27
  TRACK 63 AUDIO
    TITLE "6:cjc137_2769"
    INDEX 01 00:49:35
  TRACK 64 AUDIO
    TITLE "0:"
    INDEX 01 00:50:39
  TRACK 65 AUDIO
    TITLE "5:cjc137_2770"
    INDEX 01 00:50:48
  TRACK 66 AUDIO
    TITLE "0:"
    INDEX 01 00:51:56
  TRACK 67 AUDIO
    TITLE "4:cjc137_2771"
    INDEX 01 00:52:63
  TRACK 68 AUDIO
    TITLE "0:"
    INDEX 01 00:53:68
  TRACK 69 AUDIO
    TITLE "6:cjc137_2772"
    INDEX 01 00:54:05
  TRACK 70 AUDIO
    TITLE "0:"
    INDEX 01 00:55:10
  TRACK 71 AUDIO
    TITLE "5:cjc137_2773"
    INDEX 01 00:55:20
  TRACK 72 AUDIO
    TITLE "0:"
    INDEX 01 00:56:25
  TRACK 73 AUDIO
    TITLE "4:cjc137_2774"
    INDEX 01 00:57:35
  TRACK 74 AUDIO
    TITLE "0:"
    INDEX 01 00:58:48
  TRACK 75 AUDIO
    TITLE "6:cjc137_2775"
    INDEX 01 00:58:60
  TRACK 76 AUDIO
    TITLE "0:"
    INDEX 01 00:59:51
  TRACK 77 AUDIO
    TITLE "5:cjc137_2776"
    INDEX 01 00:59:57
  TRACK 78 AUDIO
    TITLE "0:"
    INDEX 01 01:00:72
  TRACK 79 AUDIO
    TITLE "4:cjc137_2777"
    INDEX 01 01:02:06
  TRACK 80 AUDIO
    TITLE "0:"
    INDEX 01 01:03:27
  TRACK 81 AUDIO
    TITLE "6:cjc137_2778"
    INDEX 01 01:03:33
  TRACK 82 AUDIO
    TITLE "0:"
    INDEX 01 01:04:48
  TRACK 83 AUDIO
    TITLE "5:cjc137_2779"
    INDEX 01 01:04:56
  TRACK 84 AUDIO
    TITLE "0:"
    INDEX 01 01:06:02
